<?xml version="1.0" standalone="no"?>
<!DOCTYPE svg PUBLIC "-//W3C//DTD SVG 20010904//EN"
 "http://www.w3.org/TR/2001/REC-SVG-20010904/DTD/svg10.dtd">
<svg version="1.0" xmlns="http://www.w3.org/2000/svg"
 width="400.000000pt" height="400.000000pt" viewBox="0 0 400.000000 400.000000"
 preserveAspectRatio="xMidYMid meet">
<metadata>
Created by potrace 1.11, written by Peter Selinger 2001-2013
</metadata>
<g transform="translate(0.000000,400.000000) scale(0.100000,-0.100000)"
fill="#000000" stroke="none">
<path d="M1831 3951 c-8 -5 -35 -48 -60 -97 -64 -122 -76 -124 -173 -33 -40
38 -81 71 -91 75 -36 12 -63 -21 -91 -113 -15 -48 -29 -93 -31 -100 -2 -7 -16
-15 -29 -19 -20 -5 -43 5 -103 44 -104 66 -117 69 -148 38 -20 -20 -25 -35
-25 -73 0 -26 -3 -72 -7 -101 -9 -78 -24 -82 -147 -37 -147 53 -162 42 -147
-117 9 -93 8 -105 -7 -121 -17 -17 -23 -17 -115 -1 -163 27 -178 11 -130 -144
27 -88 28 -99 15 -119 -13 -21 -21 -23 -118 -23 -91 0 -107 -3 -124 -20 -11
-11 -20 -26 -20 -33 0 -7 23 -55 50 -107 68 -129 65 -135 -80 -165 -143 -30
-151 -56 -55 -175 36 -44 65 -89 65 -99 0 -17 -29 -51 -43 -51 -4 0 -41 -16
-82 -35 -57 -26 -76 -40 -81 -59 -10 -40 2 -58 81 -120 104 -81 103 -95 -8
-177 -45 -34 -86 -68 -91 -76 -17 -30 12 -61 94 -104 136 -70 138 -80 40 -182
-62 -64 -70 -76 -68 -107 l3 -35 109 -36 c142 -46 144 -50 71 -164 -30 -47
-55 -96 -55 -109 0 -28 24 -56 48 -57 77 -3 184 -18 197 -29 21 -18 18 -45
-15 -130 -57 -143 -41 -162 119 -148 141 13 140 14 118 -127 -26 -161 -11
-174 144 -125 132 41 134 40 142 -105 3 -61 10 -112 17 -120 21 -25 63 -17
151 31 109 59 127 55 147 -31 33 -143 41 -162 67 -169 32 -8 43 -2 134 72 89
73 103 72 143 -14 47 -100 62 -127 79 -137 32 -20 65 2 129 83 83 106 89 106
175 -10 56 -76 71 -90 95 -90 34 0 41 8 95 112 59 114 67 115 171 21 117 -106
138 -100 184 52 29 96 41 115 68 115 7 0 51 -25 97 -55 47 -30 95 -55 105 -55
36 0 60 35 60 88 0 97 12 153 35 168 20 13 31 11 113 -21 104 -40 122 -42 145
-17 19 21 21 66 7 165 -14 93 -4 103 88 92 37 -5 91 -9 121 -9 84 -2 87 12 35
192 -25 86 -19 92 122 100 102 7 109 8 123 32 15 29 9 47 -56 163 -46 82 -36
100 66 122 139 30 151 37 151 86 0 10 -30 55 -66 99 -78 96 -80 118 -11 149
23 10 63 28 89 40 62 28 83 59 67 95 -7 14 -15 26 -18 26 -4 0 -17 10 -31 23
-14 12 -44 37 -67 55 -67 53 -61 76 37 147 132 94 130 117 -9 189 -123 63
-125 73 -36 168 89 96 97 114 64 142 -14 12 -59 32 -100 45 -146 44 -147 46
-73 162 85 132 72 162 -71 174 -44 3 -90 9 -103 12 -38 9 -37 45 3 148 36 92
36 97 20 121 l-17 26 -117 -7 c-152 -9 -149 -12 -127 130 25 160 14 169 -139
124 -141 -42 -142 -41 -146 99 -6 161 -20 170 -161 97 -131 -68 -134 -67 -167
81 -22 97 -46 130 -85 118 -12 -3 -48 -29 -81 -57 -33 -28 -68 -57 -77 -65
-36 -30 -61 -9 -103 88 -38 90 -62 120 -97 120 -9 0 -49 -38 -89 -85 -97 -115
-104 -115 -197 22 -48 71 -75 86 -111 64z m345 -536 c123 -18 222 -43 335 -85
100 -36 92 -21 109 -205 12 -125 22 -152 68 -178 30 -17 41 -18 130 -9 53 6
129 14 169 17 l71 7 64 -80 c112 -143 204 -316 249 -470 46 -158 60 -263 57
-438 l-3 -168 -138 -68 c-117 -58 -141 -73 -150 -98 -6 -17 -14 -30 -17 -30
-3 0 -81 231 -175 512 -117 351 -178 521 -195 541 -41 50 -73 57 -247 57 -172
0 -223 -12 -257 -61 -8 -13 -64 -169 -122 -348 -59 -180 -110 -330 -114 -334
-4 -4 -29 58 -56 140 -76 230 -89 238 -357 231 -202 -4 -209 -10 -286 -238
-28 -82 -52 -139 -55 -130 -3 8 -55 161 -115 339 -72 213 -117 332 -133 348
-35 39 -80 53 -163 53 -41 0 -75 3 -75 8 0 13 71 114 133 190 40 48 65 71 76
68 9 -3 70 -10 136 -16 66 -7 123 -14 127 -16 12 -7 72 22 92 45 15 16 22 52
34 153 8 73 17 136 21 139 13 14 279 96 346 108 39 6 93 15 120 20 80 14 213
12 321 -4z m-968 -120 c100 -84 0 -242 -120 -192 -45 19 -68 56 -68 111 0 36
6 50 31 75 41 42 112 44 157 6z m1727 -30 c30 -30 35 -43 35 -80 0 -35 -6 -52
-29 -77 -26 -30 -35 -33 -84 -33 -45 0 -60 5 -81 24 -48 45 -46 122 4 172 23
23 37 29 74 29 39 0 51 -5 81 -35z m-1990 -1400 c153 -459 177 -523 204 -547
62 -56 155 -57 219 -3 34 29 57 87 172 440 45 138 86 254 90 258 4 5 58 -142
119 -326 123 -367 131 -383 214 -407 58 -16 117 0 160 44 25 26 41 62 77 174
l45 142 257 0 256 0 48 -142 c70 -212 92 -228 312 -228 l122 0 -26 -43 c-112
-178 -306 -365 -489 -471 -172 -98 -442 -192 -457 -158 -1 4 -55 54 -118 112
-63 58 -120 110 -127 117 -21 19 -72 26 -103 13 -15 -6 -76 -65 -134 -130
l-106 -118 -80 24 c-242 70 -456 199 -630 381 -116 121 -149 164 -225 295
l-27 48 53 92 c29 51 63 109 76 128 27 41 29 76 6 110 -24 35 -33 41 -165 116
l-117 67 -7 64 c-10 98 15 324 48 436 l11 38 75 -3 74 -3 173 -520z m1596 429
c74 -222 99 -299 99 -311 0 -10 -31 -13 -140 -13 -77 0 -140 1 -140 3 0 7 132
402 137 410 8 13 12 5 44 -89z m-1879 -643 c22 -25 28 -41 28 -77 0 -40 -5
-51 -36 -80 -44 -42 -94 -46 -145 -11 -40 27 -56 73 -43 125 21 84 137 109
196 43z m2836 -46 c36 -39 41 -78 17 -125 -22 -42 -53 -60 -105 -60 -37 0 -51
5 -72 28 -33 34 -48 73 -41 103 25 99 133 128 201 54z m-1478 -950 c88 -46 72
-188 -24 -214 -72 -19 -146 37 -146 110 0 91 89 146 170 104z"/>
</g>
</svg>
